<svg width="146" height="33" fill="none" xmlns="http://www.w3.org/2000/svg"><path d="M.012 28.304c0-1.76.323-3.388.968-4.884.645-1.496 1.423-2.801 2.332-3.916.91-1.144 2.083-2.464 3.52-3.96 1.467-1.555 2.523-2.787 3.168-3.696.675-.939 1.012-1.892 1.012-2.86 0-.733-.205-1.364-.616-1.892-.41-.528-1.012-.792-1.804-.792s-1.423.279-1.892.836c-.47.557-.719 1.35-.748 2.376H.32c.117-2.904.88-5.104 2.288-6.6C4.016 1.42 5.981.672 8.504.672c1.848 0 3.403.381 4.664 1.144 1.29.763 2.244 1.76 2.86 2.992a8.55 8.55 0 01.924 3.872 9.194 9.194 0 01-.924 4.004 15.463 15.463 0 01-2.2 3.52c-.85 1.056-1.936 2.273-3.256 3.652-1.467 1.584-2.552 2.86-3.256 3.828-.675.939-1.012 1.863-1.012 2.772h10.78V32H.012v-3.696zm29.94-17.6c2.053 0 3.725.777 5.016 2.332 1.32 1.525 1.98 3.652 1.98 6.38v4.004c0 2.875-.763 5.119-2.288 6.732-1.525 1.584-3.579 2.376-6.16 2.376-2.493 0-4.488-.792-5.984-2.376-1.467-1.584-2.23-3.755-2.288-6.512h5.94c.059 1.144.264 1.95.616 2.42.381.44.953.66 1.716.66.792 0 1.379-.25 1.76-.748.41-.528.616-1.437.616-2.728v-3.388c0-1.29-.176-2.185-.528-2.684-.352-.528-.865-.792-1.54-.792-1.35 0-2.185.836-2.508 2.508h-5.632V1.2h15.224v5.28h-9.504v5.104a7.542 7.542 0 013.564-.88zM49.266 32.44c-2.786 0-4.957-.807-6.512-2.42-1.554-1.643-2.332-3.93-2.332-6.864V10.132c0-2.933.778-5.221 2.332-6.864C44.31 1.596 46.48.76 49.266.76c2.787 0 4.958.836 6.512 2.508 1.584 1.643 2.376 3.93 2.376 6.864v13.024c0 2.933-.792 5.221-2.376 6.864-1.554 1.613-3.725 2.42-6.512 2.42zm0-5.5c2.054 0 3.08-1.247 3.08-3.74V10.176c0-1.261-.264-2.215-.792-2.86s-1.29-.968-2.288-.968c-2.024 0-3.036 1.276-3.036 3.828V23.2c0 2.493 1.012 3.74 3.036 3.74zM83.072 8.68V32h-5.5v-5.5c0-1.79.102-4.459.308-8.008l-.308-.088-1.76 6.38-.528 1.804h-5.28l-.528-1.804-1.76-6.38-.308.088c.205 3.55.308 6.219.308 8.008V32h-5.5V8.68h5.94l2.376 6.116c.968 2.523 1.642 4.547 2.024 6.072h.176c.381-1.525 1.056-3.55 2.024-6.072l2.376-6.116h5.94zm1.99 17.996c.909 0 1.554-.293 1.935-.88.382-.587.66-1.613.836-3.08.147-1.203.323-3.27.528-6.204.206-2.933.338-5.544.396-7.832h15.18V32h-5.94V14.18h-3.52a95.89 95.89 0 01-.264 4.752c-.117 1.936-.278 3.564-.484 4.884-.381 2.963-1.29 5.148-2.728 6.556-1.408 1.379-3.388 2.068-5.94 2.068v-5.764zM124.336 8.68V32h-5.984v-9.02h-4.048V32h-5.984V8.68h5.984v8.8h4.048v-8.8h5.984zm21.554 12.408h-6.028v6.248h-5.544v-6.248h-6.028v-5.5h6.028V9.34h5.544v6.248h6.028v5.5z" fill="#000"/></svg>