<svg width="127" height="40" fill="none" xmlns="http://www.w3.org/2000/svg"><path d="M.012 28.304c0-1.76.323-3.388.968-4.884.645-1.496 1.423-2.801 2.332-3.916.91-1.144 2.083-2.464 3.52-3.96 1.467-1.555 2.523-2.787 3.168-3.696.675-.939 1.012-1.892 1.012-2.86 0-.733-.205-1.364-.616-1.892-.41-.528-1.012-.792-1.804-.792s-1.423.279-1.892.836c-.47.557-.719 1.35-.748 2.376H.32c.117-2.904.88-5.104 2.288-6.6C4.016 1.42 5.981.672 8.504.672c1.848 0 3.403.381 4.664 1.144 1.29.763 2.244 1.76 2.86 2.992a8.55 8.55 0 01.924 3.872 9.194 9.194 0 01-.924 4.004 15.463 15.463 0 01-2.2 3.52c-.85 1.056-1.936 2.273-3.256 3.652-1.467 1.584-2.552 2.86-3.256 3.828-.675.939-1.012 1.863-1.012 2.772h10.78V32H.012v-3.696zM41.392 8.68V32h-5.5v-5.5c0-1.79.103-4.459.308-8.008l-.308-.088-1.76 6.38-.528 1.804h-5.28l-.528-1.804-1.76-6.38-.308.088c.205 3.55.308 6.219.308 8.008V32h-5.5V8.68h5.94l2.376 6.116c.968 2.523 1.643 4.547 2.024 6.072h.176c.381-1.525 1.056-3.55 2.024-6.072l2.376-6.116h5.94zm1.99 17.996c.909 0 1.554-.293 1.936-.88.38-.587.66-1.613.836-3.08.146-1.203.322-3.27.528-6.204.205-2.933.337-5.544.396-7.832h15.18V32h-5.94V14.18h-3.52c-.03 1.232-.118 2.816-.264 4.752-.118 1.936-.28 3.564-.484 4.884-.382 2.963-1.291 5.148-2.728 6.556-1.408 1.379-3.388 2.068-5.94 2.068v-5.764zM76.013 8.152c2.288 0 4.122.85 5.5 2.552 1.38 1.672 2.068 3.887 2.068 6.644v6.072c0 1.819-.322 3.417-.968 4.796-.616 1.379-1.496 2.45-2.64 3.212-1.144.763-2.464 1.144-3.96 1.144-1.26 0-2.434-.425-3.52-1.276v8.624h-5.852V8.636h4.092l.264 2.068A8.09 8.09 0 0173.285 8.9c.91-.499 1.82-.748 2.728-.748zm1.452 9.196c0-1.144-.205-2.01-.616-2.596-.38-.587-.953-.88-1.716-.88-.85 0-1.51.293-1.98.88-.44.587-.66 1.452-.66 2.596v6.072c0 2.288.88 3.432 2.64 3.432.763 0 1.335-.279 1.716-.836.411-.587.616-1.452.616-2.596v-6.072zm7.215 9.24h1.848c.616-.645 1.041-1.437 1.276-2.376.264-.968.44-2.083.528-3.344.293-4.693.484-8.756.572-12.188h15.092v17.908h2.728v10.648h-5.72V32H90.4v5.236h-5.72V26.588zm13.376 0V14.18H94.58c-.059 3.197-.176 5.925-.352 8.184-.118 1.613-.382 3.021-.792 4.224h4.62zm28.37-5.5h-6.028v6.248h-5.544v-6.248h-6.028v-5.5h6.028V9.34h5.544v6.248h6.028v5.5z" fill="#000"/></svg>