<svg width="82" height="33" fill="none" xmlns="http://www.w3.org/2000/svg"><path d="M10.616 10.704c2.053 0 3.725.777 5.016 2.332 1.32 1.525 1.98 3.652 1.98 6.38v4.004c0 2.875-.763 5.119-2.288 6.732-1.525 1.584-3.579 2.376-6.16 2.376-2.493 0-4.488-.792-5.984-2.376C1.713 28.568.95 26.397.892 23.64h5.94c.059 1.144.264 1.95.616 2.42.381.44.953.66 1.716.66.792 0 1.379-.25 1.76-.748.41-.528.616-1.437.616-2.728v-3.388c0-1.29-.176-2.185-.528-2.684-.352-.528-.865-.792-1.54-.792-1.35 0-2.185.836-2.508 2.508H1.332V1.2h15.224v5.28H7.052v5.104a7.542 7.542 0 013.564-.88zM29.93 32.44c-2.786 0-4.957-.807-6.512-2.42-1.554-1.643-2.332-3.93-2.332-6.864V10.132c0-2.933.778-5.221 2.332-6.864C24.973 1.596 27.144.76 29.93.76c2.787 0 4.958.836 6.512 2.508 1.584 1.643 2.376 3.93 2.376 6.864v13.024c0 2.933-.792 5.221-2.376 6.864-1.554 1.613-3.725 2.42-6.512 2.42zm0-5.5c2.054 0 3.08-1.247 3.08-3.74V10.176c0-1.261-.264-2.215-.792-2.86s-1.29-.968-2.288-.968c-2.024 0-3.036 1.276-3.036 3.828V23.2c0 2.493 1.012 3.74 3.036 3.74zm21.442 5.5c-2.787 0-4.958-.807-6.512-2.42-1.555-1.643-2.332-3.93-2.332-6.864V10.132c0-2.933.777-5.221 2.332-6.864C46.414 1.596 48.585.76 51.372.76c2.786 0 4.957.836 6.512 2.508 1.584 1.643 2.376 3.93 2.376 6.864v13.024c0 2.933-.792 5.221-2.376 6.864-1.555 1.613-3.726 2.42-6.512 2.42zm0-5.5c2.053 0 3.08-1.247 3.08-3.74V10.176c0-1.261-.264-2.215-.792-2.86s-1.291-.968-2.288-.968c-2.024 0-3.036 1.276-3.036 3.828V23.2c0 2.493 1.012 3.74 3.036 3.74zm30.11-5.852h-6.029v6.248H69.91v-6.248h-6.028v-5.5h6.028V9.34h5.544v6.248h6.028v5.5z" fill="#000"/></svg>