<svg width="25" height="25" fill="none" xmlns="http://www.w3.org/2000/svg"><path fill-rule="evenodd" clip-rule="evenodd" d="M11.978 8.851c0 .933-.351 1.785-.928 2.43a4.687 4.687 0 01-2.717 8.505H3.647a1.562 1.562 0 01-1.562-1.562V5.727a1.562 1.562 0 011.562-1.562h4.165a4.165 4.165 0 014.166 4.166v.52zm-7.81 1.563V6.248h3.644a2.083 2.083 0 012.083 2.083v.52a1.562 1.562 0 01-1.562 1.563H4.168zm0 2.082h4.165a2.603 2.603 0 110 5.207H4.168v-5.207z" fill="#C4B6B6"/><path d="M15.623 6.248a1.041 1.041 0 011.04-1.041h3.646a1.041 1.041 0 110 2.082h-3.645a1.041 1.041 0 01-1.041-1.041z" fill="#C4B6B6"/><path fill-rule="evenodd" clip-rule="evenodd" d="M18.486 8.33c-2.958 0-5.467 2.273-5.467 5.207v1.042c0 2.934 2.509 5.207 5.467 5.207 1.578 0 2.72-.454 3.485-.948.46-.296.822-.656 1.17-1.07a1.042 1.042 0 00-1.713-1.184 2.34 2.34 0 01-.583.503c-.45.289-1.204.616-2.359.616-1.93 0-3.384-1.458-3.384-3.124h7.81a1.041 1.041 0 001.041-1.042c0-2.934-2.508-5.206-5.467-5.206zm3.19 4.166c-.458-1.188-1.679-2.082-3.19-2.082-1.51 0-2.731.894-3.19 2.082h6.38z" fill="#C4B6B6"/></svg>