<svg width="26" height="25" fill="none" xmlns="http://www.w3.org/2000/svg"><path fill-rule="evenodd" clip-rule="evenodd" d="M4.459 11.161c2.7.224 5.284-.317 7.424-1.541a24.52 24.52 0 00-3.758-4.37 8.85 8.85 0 00-3.666 5.911zM7.685 3.06a10.929 10.929 0 00-5.409 9.437c0 6.039 4.896 10.934 10.934 10.934 6.04 0 10.935-4.895 10.935-10.934S19.249 1.562 13.21 1.562a10.884 10.884 0 00-5.526 1.496v.001zm2.38 1.16a26.766 26.766 0 013.518 4.198 10.611 10.611 0 002.937-4.134 8.827 8.827 0 00-3.31-.638 8.83 8.83 0 00-3.143.575l-.001-.002zm8.29 1.074a12.6 12.6 0 01-3.658 4.912 26.5 26.5 0 011.009 1.944c1.96-.763 4.082-1.115 6.263-.935a8.849 8.849 0 00-3.612-5.92h-.001zm3.67 8.016c-1.898-.193-3.77.094-5.511.762a24.2 24.2 0 011.419 5.911 8.85 8.85 0 004.09-6.673h.001zm-6.099 7.613a21.826 21.826 0 00-1.3-5.952c-2.206 1.268-4.1 3.162-5.414 5.425a8.82 8.82 0 003.998.953 8.84 8.84 0 002.717-.425v-.001zm-8.45-1.683c1.524-2.576 3.738-4.761 6.344-6.206a25.01 25.01 0 00-.844-1.642c-2.514 1.45-5.519 2.087-8.587 1.853a8.834 8.834 0 003.087 5.995z" fill="#C4B6B6"/></svg>