<svg width="26" height="25" fill="none" xmlns="http://www.w3.org/2000/svg"><path fill-rule="evenodd" clip-rule="evenodd" d="M2.89 6.248a4.165 4.165 0 014.166-4.165h12.496a4.165 4.165 0 014.166 4.165v12.496a4.165 4.165 0 01-4.166 4.166H7.056a4.165 4.165 0 01-4.165-4.166V6.248zm4.166-2.083a2.083 2.083 0 00-2.083 2.083v12.496a2.082 2.082 0 002.083 2.083h6.248v-7.29h-1.041a1.041 1.041 0 110-2.082h1.041V9.893a3.645 3.645 0 013.645-3.645h.625a1.041 1.041 0 110 2.083h-.625a1.562 1.562 0 00-1.562 1.562v1.562h2.187a1.042 1.042 0 010 2.082h-2.187v7.29h4.165a2.083 2.083 0 002.083-2.083V6.248a2.083 2.083 0 00-2.083-2.083H7.056z" fill="#C4B6B6"/></svg>