<svg width="26" height="25" fill="none" xmlns="http://www.w3.org/2000/svg"><path fill-rule="evenodd" clip-rule="evenodd" d="M6.385 2.083A4.165 4.165 0 002.22 6.248v12.496a4.165 4.165 0 004.165 4.166h12.496a4.165 4.165 0 004.166-4.166V6.248a4.165 4.165 0 00-4.166-4.165H6.385zM4.302 6.248a2.083 2.083 0 012.083-2.083h12.496a2.083 2.083 0 012.083 2.083v12.496a2.082 2.082 0 01-2.083 2.083H6.385a2.083 2.083 0 01-2.083-2.083V6.248zm5.207 5.207a1.041 1.041 0 00-2.083 0v6.248a1.041 1.041 0 102.083 0v-6.248zm.52-3.645a1.562 1.562 0 11-3.123 0 1.562 1.562 0 013.124 0zm2.604 2.603c.354 0 .667.177.854.446a3.655 3.655 0 011.75-.446c2.249 0 3.644 2.006 3.644 3.719v3.57a1.041 1.041 0 11-2.082 0v-3.571c0-.8-.688-1.636-1.563-1.636-.545 0-1.148.297-1.562 1.003v4.205a1.041 1.041 0 11-2.082 0v-6.248a1.041 1.041 0 011.041-1.042z" fill="#C4B6B6"/></svg>