<svg width="135" height="75" fill="none" xmlns="http://www.w3.org/2000/svg"><g clip-path="url(#clip0_1_882)"><path d="M19.08 10.976h-2.35v2.482h2.352v-2.482zm4.705 0h2.352V8.624H19.08v2.352h4.705zm4.835 0h-2.35v2.482h2.352v-2.482z" fill="#000"/><path d="M30.974 13.458H28.62v2.352h2.353v-2.352zm2.352-2.482h-2.352v2.482h2.352v-2.482zm4.834-2.352h-4.834v2.352h7.186V8.624H38.16zm4.705 2.352h-2.352v2.482h2.352v-2.482zm.001 2.482v9.539h2.483v-9.539h-2.483zm-.001 9.539h-2.352v2.352h2.352v-2.352z" fill="#000"/><path d="M40.514 25.349H38.16V27.7h2.352v-2.352zM38.16 27.7h-2.482v2.352h2.483V27.7zm-2.482 2.352h-2.353v2.352h2.353v-2.352zm-2.352 2.483h-2.352v2.352h2.352v-2.352zm-2.352 2.352H28.62v2.352h2.353v-2.352zm-2.354-2.352h-2.35v2.352h2.352v-2.352zm-2.352-2.483h-2.483v2.483h2.483v-2.483zM23.785 27.7h-2.352v2.352h2.352V27.7zm-2.353-2.351H19.08V27.7h2.352v-2.352z" fill="#000"/><path d="M19.08 22.997h-2.35v2.352h2.352v-2.352zm-2.352-2.483v-7.056h-2.483v9.408h2.483v-2.352z" fill="#000"/><path d="M19.08 13.458h-2.35v2.352h2.352v-2.352z" fill="#fff"/><path d="M40.514 13.458v-2.482h-7.189v2.482h-2.352v2.352h-2.352v-2.352H26.27v-2.482h-4.836v2.482h-2.352v2.352H16.73v7.187h2.352v2.351h2.352V27.7h2.353v2.352h2.483v2.483h2.352v2.352h2.352v-2.352h2.353v-2.483h2.352V27.7h2.483v-2.352h2.353v-2.351h2.352v-9.539h-2.352z" fill="#CE0002"/><path d="M21.432 10.976H19.08v2.351h2.352v-2.351z" fill="#fff"/><path d="M78.674 13.458v-2.482h-2.352V8.624h-7.057v2.352h-2.483v2.482H64.43v-2.482h-2.484V8.624H54.89v2.352h2.353v2.482H54.89v2.352h-2.352v-2.352h2.352v-2.482h-2.352v2.482h-2.352v9.408h2.352v2.483h2.352v-2.483h-2.352v-2.352h26.136v2.352h-2.352v2.483h2.352v-2.483h2.483v-9.408h-2.483z" fill="#000"/><path d="M76.322 25.349H73.97V27.7h2.352v-2.352zM73.97 27.7h-2.353v2.352h2.353V27.7zm-2.353 2.352h-2.483v2.352h2.483v-2.352zm-2.483 2.352H66.78v2.483h2.353v-2.483zm-2.352 2.483H64.43v2.352h2.352v-2.352zm-2.352-2.483h-2.484v2.483h2.483v-2.483zm-2.484-2.352h-2.352v2.352h2.352v-2.352z" fill="#000"/><path d="M59.595 27.7h-2.353v2.352h2.353V27.7zm-2.353-2.351H54.89V27.7h2.352v-2.352z" fill="#000"/><path d="M54.89 13.458h-2.353v2.352h2.352v-2.352z" fill="#fff"/><path d="M76.322 20.514H52.537v2.352h2.352v2.482h2.353V27.7h2.352v2.352h2.353v2.352h2.483v2.483h2.352v-2.483h2.352v-2.352h2.484V27.7h2.352v-2.352h2.352v-2.482h2.353v-2.352h-2.353z" fill="#CE0002"/><path d="M57.241 10.976h-2.352v2.351h2.352v-2.351z" fill="#fff"/><path d="M90.697 11.106h-2.352v2.352h2.352v-2.352z" fill="#000"/><path d="M114.482 13.458v-2.482h-2.352V8.624h-7.057v2.352h-2.484v2.482h-2.352v-2.482h-2.352V8.754h-7.188v2.352h2.352v2.352h-2.352v2.352h-2.352v-2.352h-2.353v9.408h2.353v2.483h2.352V27.7h2.352v2.352h2.483v2.352h2.353v2.483h2.352v2.352h2.352v-2.352h-2.352v-2.483h-2.352v-2.352h7.057v2.352h-2.353v2.483h2.353v-2.483h2.483v-2.352h2.352V27.7h2.353v-2.35h2.352v-2.483h2.483v-9.408h-2.483z" fill="#000"/><path d="M90.697 13.458h-2.352v2.352h2.352v-2.352z" fill="#fff"/><path d="M102.59 32.404h-2.353v2.483h2.353v-2.483zm-2.353-2.352h-2.352v2.352h2.352v-2.352zm2.353 0h-2.353v2.352h2.353v-2.352z" fill="#CE0002"/><path d="M104.942 30.052h-2.352v2.352h2.352v-2.352z" fill="#CE0002"/><path d="M93.05 11.106h-2.353v2.352h2.353v-2.352z" fill="#fff"/><path d="M13.591 57.36v-1.437h-1.437v10.061h1.437v1.438h-5.75v-1.438h1.437V55.923H7.841v1.438H6.403v-4.312h8.626v4.312H13.59zm11.239 9.931h-5.751v-1.437h-1.306v-7.187h1.437V57.23h7.188v1.437h1.437v7.187h-1.437v1.437H24.83zm-1.307-1.437h1.437v-7.187h-4.312v7.187h2.875zM36.2 71.472h-5.62v-1.437h5.62v-1.307h1.437v-1.437h-5.619v-1.437H30.58V57.23h2.875v8.624h4.182V57.23h2.875v11.498h-1.437v1.438h-1.438v1.437l-1.437-.13zm12.808-4.181H47.57v-2.875h2.875v2.875h-1.437zm14.113 0h-5.75v-1.437h-1.437v-2.875h2.875v2.875h4.312v-4.312h-1.437v-1.437h-2.875v-1.438H57.37V57.23h-1.437v-2.875h1.437V53.05h7.188v1.437h1.438v2.875H63.12v-2.875h-4.31v2.875h1.437v1.437h2.875v1.437h1.438v1.438h1.438v4.311H64.56v1.438l-1.438-.131zm12.808 0h-2.875v-1.437h-1.438v-7.187h-2.875V57.23h2.875v-2.875h1.438V53.05h1.438v4.312h2.875v1.437H74.49v7.185h1.438v-1.437h2.875v1.437h-1.437v1.438l-1.438-.131zm9.933 0h-4.313v-1.437h1.437v-7.187H81.55V57.23h2.875v1.437h1.438V57.23h4.312v1.437h1.438v2.875h-2.875v-2.875H87.3v1.438h-1.438v5.749H87.3v1.437h-1.438zm15.55 0h-5.75v-1.437h-1.437v-7.187h1.437V57.23h7.188v1.437h1.438v2.875H97.1v4.312h4.312v-1.438h2.876v1.438h-1.438v1.437h-1.438zm-1.437-7.056h1.437v-1.437H97.1v1.437h2.875zm15.683 7.056h-1.438v-1.437h-1.438v-4.312h-2.875v4.312h2.875v1.437h-4.312v-1.437h-1.438v-4.312h1.438v-1.438h4.312v-1.437h-4.312V57.23h5.75v1.437h1.438v7.187h1.437v1.437h-1.437zm8.495-1.437v-5.75h-1.438v7.187h-2.875V57.23h4.313v1.437h1.437V57.23h2.875v1.437h1.438v8.624h-2.875v-7.187h-1.438v5.75h-1.437z" fill="#000"/></g><defs><clipPath id="clip0_1_882"><path fill="#fff" d="M0 0h135v75H0z"/></clipPath></defs></svg>