<svg width="26" height="25" fill="none" xmlns="http://www.w3.org/2000/svg"><path fill-rule="evenodd" clip-rule="evenodd" d="M3.936 12.496a8.851 8.851 0 115.803 8.313c.6-1.61 1.184-3.227 1.748-4.85.598.427 1.37.703 2.341.703 2.016 0 4.14-1.328 4.666-3.962.663-3.306-1.985-6.452-5.707-6.452-1.565 0-3.104.629-4.256 1.627-1.154 1-1.992 2.442-1.992 4.1 0 .808.244 1.706.824 2.298a1.052 1.052 0 001.474 0 1.041 1.041 0 00.023-1.449c-.818-1.02.26-2.703 1.035-3.375.805-.698 1.869-1.118 2.892-1.118 2.527 0 4.045 2.06 3.666 3.961-.317 1.577-1.516 2.287-2.624 2.287-.852 0-1.31-.36-1.604-.825.16-.504.297-.962.395-1.335.2-.767.32-1.693-.37-2.269-.514-.427-1.12-.333-1.49-.147-.69.344-1.097 1.15-1.097 1.973 0 .459.072 1.171.33 1.907a178.442 178.442 0 01-2.122 5.975 8.843 8.843 0 01-3.935-7.362zm8.851-10.934c-6.039 0-10.934 4.895-10.934 10.934S6.748 23.43 12.787 23.43s10.934-4.895 10.934-10.934S18.826 1.562 12.787 1.562z" fill="#C4B6B6"/></svg>