<svg width="833" height="793" fill="none" xmlns="http://www.w3.org/2000/svg"><g clip-path="url(#clip0_1_1459)"><path d="M462.735 233.199h-93.406v23.312h93.406v-23.312zm46.586 23.39h-46.664v23.312h46.664v-23.312zm23.409 23.312h-23.332v23.312h23.332v-23.312zm23.332 23.312H532.73v46.624h23.332v-46.624zm23.333 46.624h-23.332v93.326h23.332v-93.326zm-23.333 93.326H532.73v46.624h23.332v-46.624zm-23.332 46.624h-23.332v23.312h23.332v-23.312zm-233.422 23.327h23.332v-23.312h-23.332v23.312zm-23.354-23.346h23.332v-46.624h-23.332v46.624zM252.6 443.154h23.332v-93.326H252.6v93.326zm23.354-93.315h23.332v-46.624h-23.332v46.624zm23.354-46.659h23.332v-23.312h-23.332v23.312zm23.364-23.333h46.664v-23.312h-46.664v23.312z" fill="#CC6F2D"/><path d="M322.588 513.099h-23.332v23.313h23.332v-23.313zm23.332 23.312h-23.331v23.312h23.331v-23.312zm23.41 23.313h-23.332v23.312h23.332v-23.312zm0 23.39h-23.332v23.312h23.332v-23.312zm23.331 23.312h-23.332v23.312h23.332v-23.312zm140.069-93.327h-23.332v23.313h23.332v-23.313zm-23.41 23.312h-23.332v23.312h23.332v-23.312zm-23.331 23.313h-23.332v46.624h23.332v-46.624zm-23.332 46.702h-23.332v23.312h23.332v-23.312z" fill="#CC6F2D"/><path d="M462.735 653.05h-93.406v23.312h93.406V653.05zm0 46.624h-93.406v23.312h93.406v-23.312zm0 46.702h-93.406v23.312h93.406v-23.312z" fill="#BFBFBF"/><path d="M485.989 653.05h-23.332v46.624h23.332V653.05zM369.33 676.362h-23.332v23.312h23.332v-23.312zm116.659 46.624h-23.332v23.312h23.332v-23.312z" fill="#BFBFBF"/><path d="M462.657 653.05h23.332v-23.312H345.998v46.624h23.332V653.05h93.327zm.079 23.312h-93.405v23.312h93.405v-23.312zm-23.411 93.326h-46.663V793h46.663v-23.312zm-69.995-70.014h-23.332v46.702h116.659v-23.39H369.33v-23.312zm116.659 0h-23.332v23.312h23.332v-23.312z" fill="#141414"/><path d="M532.731 349.837v23.312h-23.332v23.312h-23.41v46.702h-46.663v46.624H369.33v23.312h-46.741v23.312h23.41v23.313h23.331v46.702h23.332v23.312h46.664v-23.312h23.332v-46.702h23.331v-23.313h23.41v-46.624h23.332v-46.624h23.332v-93.326h-23.332z" fill="#EB9E23"/><path d="M439.404 303.213h-93.406v69.936h93.406v-69.936z" fill="#FCF7C2"/><path d="M509.398 279.901h-46.663v-23.312h-93.406v23.312h-46.663v23.312h-23.332v46.624h-23.332v93.248h23.332v46.624h23.332v23.312h46.663v-23.312h69.996v-46.624h46.663v-46.624h23.332v-23.312h23.332v-69.936H509.32v-23.312h.078zm-140.069 23.312h69.996v69.936h-93.328v-69.936h23.332zM427.619 0h-23.332v209.887h23.332V0zm276.47 92.353L555.553 240.764l16.498 16.484 148.536-148.411-16.498-16.484zm128.91 262.786H622.935v23.312h210.064v-23.312zm-220.977 123.69l-16.498 16.484L744.06 643.724l16.498-16.484-148.536-148.411zM128.885 94.852l-16.498 16.483 148.537 148.411 16.498-16.484-148.537-148.41zm81.179 262.782H0v23.312h210.064v-23.312zm10.932 123.726L72.46 629.771l16.497 16.483 148.537-148.41-16.498-16.484z" fill="#FCE829"/></g><defs><clipPath id="clip0_1_1459"><path fill="#fff" d="M0 0h833v793H0z"/></clipPath></defs></svg>