<svg width="327" height="560" fill="none" xmlns="http://www.w3.org/2000/svg"><g clip-path="url(#clip0_1_1528)"><path d="M210.27 0h-93.462v23.324h93.462V0zm46.614 23.324h-46.692v23.323h46.692V23.324zm23.424 23.323h-23.346v23.324h23.346V46.647zm23.346 23.323h-23.346v46.648h23.346V69.971zM327 116.696h-23.346v93.372H327v-93.372zm-23.346 93.294h-23.346v46.647h23.346V209.99zm-23.346 46.725h-23.346v23.324h23.346v-23.324zm-233.56 23.27h23.346v-23.323H46.748v23.323zM23.38 256.706h23.346v-46.647H23.38v46.647zM.011 209.991h23.346v-93.372H.011v93.372zm23.369-93.284h23.346V70.06H23.38v46.647zm23.368-46.681h23.346V46.702H46.748v23.324zM70.127 46.68h46.692V23.358H70.127v23.324zm-.089 233.359H46.692v23.323h23.346v-23.323zm23.346 23.324H70.038v23.323h23.346v-23.323zm23.424 23.323H93.462v23.324h23.346v-23.324zm0 23.324H93.462v23.323h23.346V350.01zm23.346 23.323h-23.346v23.324h23.346v-23.324zm140.154-93.294h-23.346v23.323h23.346v-23.323zm-23.424 23.324h-23.346v23.323h23.346v-23.323zm-23.346 23.323h-23.346v46.647h23.346v-46.647zm-23.346 46.647h-23.346v23.324h23.346v-23.324zm.078 46.725h-93.462v23.324h93.462v-23.324zm0 46.648h-93.462v23.323h93.462v-23.323zm0 46.647h-93.462v23.323h93.462v-23.323z" fill="#BFBFBF"/><path d="M233.538 420.058h-23.346v46.648h23.346v-46.648zm-116.73 23.324H93.462v23.324h23.346v-23.324zm116.73 46.647h-23.346v23.324h23.346v-23.324z" fill="#BFBFBF"/><path d="M210.192 420.058h23.346v-23.401H93.462v46.725h23.346v-23.324h93.384zm.079 23.324h-93.462v23.324h93.462v-23.324zm-23.425 93.294h-46.692V560h46.692v-23.324zm-70.038-69.97H93.462v46.647h116.73v-23.324h-93.384v-23.323zm116.73 0h-23.346v23.323h23.346v-23.323z" fill="#141414"/><path d="M280.308 116.696v23.323h-23.346v23.324h-23.424v46.647h-46.692v46.725h-70.038v23.324h-46.77v23.324h23.425v23.323h23.345v46.647h23.346v23.324h46.692v-23.324h23.346v-46.647h23.346v-23.323h23.424v-46.648h23.346V209.99h23.346v-93.294h-23.346z" fill="#D4D4D4"/><path d="M186.924 69.97H93.462v69.971h93.462v-69.97z" fill="#FCFCFC"/><path d="M256.962 46.647H210.27V23.324h-93.384v23.323H70.038v23.324H46.692v46.647H23.346v93.294h23.346v46.647h23.346v23.48h46.692v-23.324h70.038v-46.647h46.692v-46.647h23.345v-23.323h23.503V69.97h-23.346V46.648zM116.808 69.971h70.038v69.971H93.462V69.971h23.346z" fill="#E8E8E8"/></g><defs><clipPath id="clip0_1_1528"><path fill="#fff" d="M0 0h327v560H0z"/></clipPath></defs></svg>