<svg width="26" height="25" fill="none" xmlns="http://www.w3.org/2000/svg"><path fill-rule="evenodd" clip-rule="evenodd" d="M7.973 4.238c1.231-1.462 2.974-2.155 4.949-2.155 2.02 0 3.753.816 4.96 2.304 1.073 1.323 1.68 3.108 1.79 5.183l.097.014.02.004c.177.025.389.056.609.099.813.157 2.201.555 2.679 2.045.24.748.12 1.442-.3 1.992-.361.474-.878.748-1.247.913a9.546 9.546 0 01-.521.214c.36.974.987 1.977 1.68 2.885.654.856.48 1.94.143 2.647-.338.708-1.07 1.518-2.133 1.563-.602.026-1.234.089-1.863.203-.285.052-.62.166-1.037.338-.248.102-.476.204-.722.313-.196.088-.402.18-.64.281-.98.421-2.182.87-3.515.87-1.333 0-2.536-.449-3.515-.87a38.613 38.613 0 01-.64-.28c-.24-.109-.48-.213-.723-.314-.416-.172-.752-.287-1.036-.339a13.77 13.77 0 00-1.864-.202c-1.063-.046-1.795-.855-2.133-1.563-.337-.707-.51-1.79.143-2.647.698-.914 1.328-1.924 1.687-2.905a9.309 9.309 0 01-.468-.2c-.36-.168-.85-.438-1.21-.89-.404-.506-.582-1.159-.423-1.906.337-1.6 1.843-2 2.638-2.15.226-.041.446-.072.63-.098l.037-.006.125-.017c.103-2.213.706-4.023 1.803-5.326zM9.567 5.58c-.795.943-1.331 2.458-1.331 4.686v.109l-.023.107c-.116.546-.535.8-.744.899a2.59 2.59 0 01-.621.185c-.163.03-.344.055-.505.077l-.048.008c-.178.023-.356.05-.532.083-.797.149-.948.346-.987.53-.027.133-.003.16.01.175l.005.004c.055.07.188.174.465.303.13.06.266.116.417.177l.037.015c.133.052.29.115.428.18.137.063.365.178.559.363.225.216.496.636.364 1.191-.379 1.595-1.336 3.13-2.25 4.327a.247.247 0 00-.017.11c0 .1.028.235.096.378a.934.934 0 00.237.317c.067.054.104.063.109.063a15.9 15.9 0 012.145.234c.503.092 1 .273 1.458.462.253.104.543.234.825.359.197.087.39.172.563.246.936.401 1.81.701 2.695.701.885 0 1.76-.3 2.695-.7l.562-.247c.281-.125.573-.255.825-.359.458-.19.955-.37 1.458-.462.74-.135 1.468-.205 2.145-.234.006 0 .043-.009.11-.063a.946.946 0 00.237-.317.92.92 0 00.095-.377c0-.097-.023-.12-.015-.109-.914-1.197-1.872-2.733-2.253-4.329-.14-.593.182-1.02.403-1.218.198-.175.43-.284.57-.346.14-.062.299-.121.434-.172l.05-.02c.16-.06.302-.115.437-.176.28-.126.4-.223.441-.272a.466.466 0 00-.022-.099c-.095-.296-.362-.496-1.093-.637-.166-.031-.333-.056-.51-.084l-.04-.005a10.235 10.235 0 01-.492-.079 2.437 2.437 0 01-.614-.194c-.219-.108-.604-.367-.714-.888l-.023-.107v-.11c0-2.03-.528-3.56-1.342-4.564-.797-.983-1.927-1.535-3.344-1.535-1.463 0-2.583.496-3.356 1.414z" fill="#C4B6B6"/></svg>